<?xml version="1.0" encoding="UTF-8" standalone="no"?>
<!DOCTYPE svg PUBLIC "-//W3C//DTD SVG 1.1//EN"
 "http://www.w3.org/Graphics/SVG/1.1/DTD/svg11.dtd">
<!-- Generated by graphviz version 2.47.3 (20210619.1520)
 -->
<!-- Title: dependencies Pages: 1 -->
<svg width="1338pt" height="247pt"
 viewBox="0.00 0.00 1338.00 246.80" xmlns="http://www.w3.org/2000/svg" xmlns:xlink="http://www.w3.org/1999/xlink">
<g id="graph0" class="graph" transform="scale(1 1) rotate(0) translate(4 242.8)">
<title>dependencies</title>
<polygon fill="white" stroke="transparent" points="-4,4 -4,-242.8 1334,-242.8 1334,4 -4,4"/>
<text text-anchor="middle" x="665" y="-8.2" font-family="sans-serif" font-size="14.00">dependencies</text>
<g id="clust1" class="cluster">
<title>cluster_AppModule</title>
<polygon fill="none" stroke="black" stroke-dasharray="1,5" points="8,-32.8 8,-230.8 1322,-230.8 1322,-32.8 8,-32.8"/>
</g>
<g id="clust11" class="cluster">
<title>cluster_AppModule_providers</title>
<polygon fill="none" stroke="black" points="998,-40.8 998,-92.8 1314,-92.8 1314,-40.8 998,-40.8"/>
</g>
<g id="clust8" class="cluster">
<title>cluster_AppModule_imports</title>
<polygon fill="none" stroke="black" points="675,-40.8 675,-92.8 990,-92.8 990,-40.8 675,-40.8"/>
</g>
<g id="clust10" class="cluster">
<title>cluster_AppModule_bootstrap</title>
<polygon fill="none" stroke="black" points="537,-170.8 537,-222.8 661,-222.8 661,-170.8 537,-170.8"/>
</g>
<g id="clust2" class="cluster">
<title>cluster_AppModule_declarations</title>
<polygon fill="none" stroke="black" points="16,-40.8 16,-92.8 667,-92.8 667,-40.8 16,-40.8"/>
</g>
<!-- AdminComponent -->
<g id="node1" class="node">
<title>AdminComponent</title>
<polygon fill="#ffffb3" stroke="black" points="659.22,-84.8 538.78,-84.8 538.78,-48.8 659.22,-48.8 659.22,-84.8"/>
<text text-anchor="middle" x="599" y="-62.6" font-family="Times,serif" font-size="14.00">AdminComponent</text>
</g>
<!-- AppModule -->
<g id="node6" class="node">
<title>AppModule</title>
<polygon fill="#8dd3c7" stroke="black" points="640.66,-149.8 637.66,-153.8 616.66,-153.8 613.66,-149.8 557.34,-149.8 557.34,-113.8 640.66,-113.8 640.66,-149.8"/>
<text text-anchor="middle" x="599" y="-127.6" font-family="Times,serif" font-size="14.00">AppModule</text>
</g>
<!-- AdminComponent&#45;&gt;AppModule -->
<g id="edge1" class="edge">
<title>AdminComponent&#45;&gt;AppModule</title>
<path fill="none" stroke="black" d="M599,-84.91C599,-84.91 599,-103.79 599,-103.79"/>
<polygon fill="black" stroke="black" points="595.5,-103.79 599,-113.79 602.5,-103.79 595.5,-103.79"/>
</g>
<!-- AppComponent -->
<g id="node2" class="node">
<title>AppComponent</title>
<polygon fill="#ffffb3" stroke="black" points="520.94,-84.8 415.06,-84.8 415.06,-48.8 520.94,-48.8 520.94,-84.8"/>
<text text-anchor="middle" x="468" y="-62.6" font-family="Times,serif" font-size="14.00">AppComponent</text>
</g>
<!-- AppComponent&#45;&gt;AppModule -->
<g id="edge2" class="edge">
<title>AppComponent&#45;&gt;AppModule</title>
<path fill="none" stroke="black" d="M468,-84.81C468,-100.85 468,-121.8 468,-121.8 468,-121.8 547.19,-121.8 547.19,-121.8"/>
<polygon fill="black" stroke="black" points="547.19,-125.3 557.19,-121.8 547.19,-118.3 547.19,-125.3"/>
</g>
<!-- HomeComponent -->
<g id="node3" class="node">
<title>HomeComponent</title>
<polygon fill="#ffffb3" stroke="black" points="397.55,-84.8 282.45,-84.8 282.45,-48.8 397.55,-48.8 397.55,-84.8"/>
<text text-anchor="middle" x="340" y="-62.6" font-family="Times,serif" font-size="14.00">HomeComponent</text>
</g>
<!-- HomeComponent&#45;&gt;AppModule -->
<g id="edge3" class="edge">
<title>HomeComponent&#45;&gt;AppModule</title>
<path fill="none" stroke="black" d="M340,-85.07C340,-103.36 340,-128.8 340,-128.8 340,-128.8 547.1,-128.8 547.1,-128.8"/>
<polygon fill="black" stroke="black" points="547.1,-132.3 557.1,-128.8 547.1,-125.3 547.1,-132.3"/>
</g>
<!-- LoginComponent -->
<g id="node4" class="node">
<title>LoginComponent</title>
<polygon fill="#ffffb3" stroke="black" points="264.28,-84.8 149.72,-84.8 149.72,-48.8 264.28,-48.8 264.28,-84.8"/>
<text text-anchor="middle" x="207" y="-62.6" font-family="Times,serif" font-size="14.00">LoginComponent</text>
</g>
<!-- LoginComponent&#45;&gt;AppModule -->
<g id="edge4" class="edge">
<title>LoginComponent&#45;&gt;AppModule</title>
<path fill="none" stroke="black" d="M207,-84.93C207,-105.37 207,-135.8 207,-135.8 207,-135.8 547.05,-135.8 547.05,-135.8"/>
<polygon fill="black" stroke="black" points="547.05,-139.3 557.05,-135.8 547.05,-132.3 547.05,-139.3"/>
</g>
<!-- UserComponent -->
<g id="node5" class="node">
<title>UserComponent</title>
<polygon fill="#ffffb3" stroke="black" points="131.76,-84.8 24.24,-84.8 24.24,-48.8 131.76,-48.8 131.76,-84.8"/>
<text text-anchor="middle" x="78" y="-62.6" font-family="Times,serif" font-size="14.00">UserComponent</text>
</g>
<!-- UserComponent&#45;&gt;AppModule -->
<g id="edge5" class="edge">
<title>UserComponent&#45;&gt;AppModule</title>
<path fill="none" stroke="black" d="M78,-84.81C78,-107.29 78,-142.8 78,-142.8 78,-142.8 547.25,-142.8 547.25,-142.8"/>
<polygon fill="black" stroke="black" points="547.25,-146.3 557.25,-142.8 547.25,-139.3 547.25,-146.3"/>
</g>
<!-- AppComponent  -->
<g id="node9" class="node">
<title>AppComponent </title>
<polygon fill="#80b1d3" stroke="black" points="653.44,-214.8 544.56,-214.8 544.56,-178.8 653.44,-178.8 653.44,-214.8"/>
<text text-anchor="middle" x="599" y="-192.6" font-family="Times,serif" font-size="14.00">AppComponent </text>
</g>
<!-- AppModule&#45;&gt;AppComponent  -->
<g id="edge8" class="edge">
<title>AppModule&#45;&gt;AppComponent </title>
<path fill="none" stroke="black" stroke-dasharray="1,5" d="M599,-149.91C599,-149.91 599,-168.79 599,-168.79"/>
<polygon fill="black" stroke="black" points="595.5,-168.79 599,-178.79 602.5,-168.79 595.5,-168.79"/>
</g>
<!-- AngularMaterialModule -->
<g id="node7" class="node">
<title>AngularMaterialModule</title>
<polygon fill="#8dd3c7" stroke="black" points="982.34,-84.8 979.34,-88.8 958.34,-88.8 955.34,-84.8 829.66,-84.8 829.66,-48.8 982.34,-48.8 982.34,-84.8"/>
<text text-anchor="middle" x="906" y="-62.6" font-family="Times,serif" font-size="14.00">AngularMaterialModule</text>
</g>
<!-- AngularMaterialModule&#45;&gt;AppModule -->
<g id="edge6" class="edge">
<title>AngularMaterialModule&#45;&gt;AppModule</title>
<path fill="none" stroke="black" d="M906,-85.07C906,-103.36 906,-128.8 906,-128.8 906,-128.8 650.72,-128.8 650.72,-128.8"/>
<polygon fill="black" stroke="black" points="650.72,-125.3 640.72,-128.8 650.72,-132.3 650.72,-125.3"/>
</g>
<!-- AppRoutingModule -->
<g id="node8" class="node">
<title>AppRoutingModule</title>
<polygon fill="#8dd3c7" stroke="black" points="811.27,-84.8 808.27,-88.8 787.27,-88.8 784.27,-84.8 682.73,-84.8 682.73,-48.8 811.27,-48.8 811.27,-84.8"/>
<text text-anchor="middle" x="747" y="-62.6" font-family="Times,serif" font-size="14.00">AppRoutingModule</text>
</g>
<!-- AppRoutingModule&#45;&gt;AppModule -->
<g id="edge7" class="edge">
<title>AppRoutingModule&#45;&gt;AppModule</title>
<path fill="none" stroke="black" d="M747,-84.81C747,-100.85 747,-121.8 747,-121.8 747,-121.8 651.01,-121.8 651.01,-121.8"/>
<polygon fill="black" stroke="black" points="651.02,-118.3 641.01,-121.8 651.01,-125.3 651.02,-118.3"/>
</g>
<!-- ErrorInterceptor -->
<g id="node10" class="node">
<title>ErrorInterceptor</title>
<ellipse fill="#fdb462" stroke="black" cx="1232" cy="-66.8" rx="73.53" ry="18"/>
<text text-anchor="middle" x="1232" y="-62.6" font-family="Times,serif" font-size="14.00">ErrorInterceptor</text>
</g>
<!-- ErrorInterceptor&#45;&gt;AppModule -->
<g id="edge9" class="edge">
<title>ErrorInterceptor&#45;&gt;AppModule</title>
<path fill="none" stroke="black" d="M1232,-84.81C1232,-107.29 1232,-142.8 1232,-142.8 1232,-142.8 651.02,-142.8 651.02,-142.8"/>
<polygon fill="black" stroke="black" points="651.02,-139.3 641.02,-142.8 651.02,-146.3 651.02,-139.3"/>
</g>
<!-- JwtInterceptor -->
<g id="node11" class="node">
<title>JwtInterceptor</title>
<ellipse fill="#fdb462" stroke="black" cx="1073" cy="-66.8" rx="66.61" ry="18"/>
<text text-anchor="middle" x="1073" y="-62.6" font-family="Times,serif" font-size="14.00">JwtInterceptor</text>
</g>
<!-- JwtInterceptor&#45;&gt;AppModule -->
<g id="edge10" class="edge">
<title>JwtInterceptor&#45;&gt;AppModule</title>
<path fill="none" stroke="black" d="M1073,-84.93C1073,-105.37 1073,-135.8 1073,-135.8 1073,-135.8 651.06,-135.8 651.06,-135.8"/>
<polygon fill="black" stroke="black" points="651.06,-132.3 641.06,-135.8 651.06,-139.3 651.06,-132.3"/>
</g>
</g>
</svg>
