<?xml version="1.0" encoding="UTF-8" standalone="no"?>
<!DOCTYPE svg PUBLIC "-//W3C//DTD SVG 1.1//EN"
 "http://www.w3.org/Graphics/SVG/1.1/DTD/svg11.dtd">
<!-- Generated by graphviz version 2.47.3 (20210619.1520)
 -->
<!-- Title: dependencies Pages: 1 -->
<svg width="1338pt" height="247pt"
 viewBox="0.00 0.00 1338.00 246.80" xmlns="http://www.w3.org/2000/svg" xmlns:xlink="http://www.w3.org/1999/xlink">
<g id="graph0" class="graph" transform="scale(1 1) rotate(0) translate(4 242.8)">
<title>dependencies</title>
<polygon fill="white" stroke="transparent" points="-4,4 -4,-242.8 1334,-242.8 1334,4 -4,4"/>
<text text-anchor="middle" x="665" y="-8.2" font-family="sans-serif" font-size="14.00">dependencies</text>
<g id="clust7" class="cluster">
<title>cluster_AppModule</title>
<polygon fill="none" stroke="black" stroke-dasharray="1,5" points="8,-32.8 8,-230.8 1322,-230.8 1322,-32.8 8,-32.8"/>
</g>
<g id="clust8" class="cluster">
<title>cluster_AppModule_declarations</title>
<polygon fill="none" stroke="black" points="663,-40.8 663,-92.8 1314,-92.8 1314,-40.8 663,-40.8"/>
</g>
<g id="clust14" class="cluster">
<title>cluster_AppModule_imports</title>
<polygon fill="none" stroke="black" points="340,-40.8 340,-92.8 655,-92.8 655,-40.8 340,-40.8"/>
</g>
<g id="clust16" class="cluster">
<title>cluster_AppModule_bootstrap</title>
<polygon fill="none" stroke="black" points="663,-170.8 663,-222.8 787,-222.8 787,-170.8 663,-170.8"/>
</g>
<g id="clust17" class="cluster">
<title>cluster_AppModule_providers</title>
<polygon fill="none" stroke="black" points="16,-40.8 16,-92.8 332,-92.8 332,-40.8 16,-40.8"/>
</g>
<!-- AdminComponent -->
<g id="node1" class="node">
<title>AdminComponent</title>
<polygon fill="#ffffb3" stroke="black" points="1306.22,-84.8 1185.78,-84.8 1185.78,-48.8 1306.22,-48.8 1306.22,-84.8"/>
<text text-anchor="middle" x="1246" y="-62.6" font-family="Times,serif" font-size="14.00">AdminComponent</text>
</g>
<!-- AppModule -->
<g id="node6" class="node">
<title>AppModule</title>
<polygon fill="#8dd3c7" stroke="black" points="766.66,-149.8 763.66,-153.8 742.66,-153.8 739.66,-149.8 683.34,-149.8 683.34,-113.8 766.66,-113.8 766.66,-149.8"/>
<text text-anchor="middle" x="725" y="-127.6" font-family="Times,serif" font-size="14.00">AppModule</text>
</g>
<!-- AdminComponent&#45;&gt;AppModule -->
<g id="edge1" class="edge">
<title>AdminComponent&#45;&gt;AppModule</title>
<path fill="none" stroke="black" d="M1246,-84.81C1246,-107.29 1246,-142.8 1246,-142.8 1246,-142.8 776.75,-142.8 776.75,-142.8"/>
<polygon fill="black" stroke="black" points="776.75,-139.3 766.75,-142.8 776.75,-146.3 776.75,-139.3"/>
</g>
<!-- AppComponent -->
<g id="node2" class="node">
<title>AppComponent</title>
<polygon fill="#ffffb3" stroke="black" points="1167.94,-84.8 1062.06,-84.8 1062.06,-48.8 1167.94,-48.8 1167.94,-84.8"/>
<text text-anchor="middle" x="1115" y="-62.6" font-family="Times,serif" font-size="14.00">AppComponent</text>
</g>
<!-- AppComponent&#45;&gt;AppModule -->
<g id="edge2" class="edge">
<title>AppComponent&#45;&gt;AppModule</title>
<path fill="none" stroke="black" d="M1115,-84.93C1115,-105.37 1115,-135.8 1115,-135.8 1115,-135.8 776.74,-135.8 776.74,-135.8"/>
<polygon fill="black" stroke="black" points="776.74,-132.3 766.74,-135.8 776.74,-139.3 776.74,-132.3"/>
</g>
<!-- HomeComponent -->
<g id="node3" class="node">
<title>HomeComponent</title>
<polygon fill="#ffffb3" stroke="black" points="1044.55,-84.8 929.45,-84.8 929.45,-48.8 1044.55,-48.8 1044.55,-84.8"/>
<text text-anchor="middle" x="987" y="-62.6" font-family="Times,serif" font-size="14.00">HomeComponent</text>
</g>
<!-- HomeComponent&#45;&gt;AppModule -->
<g id="edge3" class="edge">
<title>HomeComponent&#45;&gt;AppModule</title>
<path fill="none" stroke="black" d="M987,-85.07C987,-103.36 987,-128.8 987,-128.8 987,-128.8 776.8,-128.8 776.8,-128.8"/>
<polygon fill="black" stroke="black" points="776.8,-125.3 766.8,-128.8 776.8,-132.3 776.8,-125.3"/>
</g>
<!-- LoginComponent -->
<g id="node4" class="node">
<title>LoginComponent</title>
<polygon fill="#ffffb3" stroke="black" points="911.28,-84.8 796.72,-84.8 796.72,-48.8 911.28,-48.8 911.28,-84.8"/>
<text text-anchor="middle" x="854" y="-62.6" font-family="Times,serif" font-size="14.00">LoginComponent</text>
</g>
<!-- LoginComponent&#45;&gt;AppModule -->
<g id="edge4" class="edge">
<title>LoginComponent&#45;&gt;AppModule</title>
<path fill="none" stroke="black" d="M854,-84.81C854,-100.85 854,-121.8 854,-121.8 854,-121.8 776.88,-121.8 776.88,-121.8"/>
<polygon fill="black" stroke="black" points="776.88,-118.3 766.88,-121.8 776.88,-125.3 776.88,-118.3"/>
</g>
<!-- UserComponent -->
<g id="node5" class="node">
<title>UserComponent</title>
<polygon fill="#ffffb3" stroke="black" points="778.76,-84.8 671.24,-84.8 671.24,-48.8 778.76,-48.8 778.76,-84.8"/>
<text text-anchor="middle" x="725" y="-62.6" font-family="Times,serif" font-size="14.00">UserComponent</text>
</g>
<!-- UserComponent&#45;&gt;AppModule -->
<g id="edge5" class="edge">
<title>UserComponent&#45;&gt;AppModule</title>
<path fill="none" stroke="black" d="M725,-84.91C725,-84.91 725,-103.79 725,-103.79"/>
<polygon fill="black" stroke="black" points="721.5,-103.79 725,-113.79 728.5,-103.79 721.5,-103.79"/>
</g>
<!-- AppComponent  -->
<g id="node9" class="node">
<title>AppComponent </title>
<polygon fill="#80b1d3" stroke="black" points="779.44,-214.8 670.56,-214.8 670.56,-178.8 779.44,-178.8 779.44,-214.8"/>
<text text-anchor="middle" x="725" y="-192.6" font-family="Times,serif" font-size="14.00">AppComponent </text>
</g>
<!-- AppModule&#45;&gt;AppComponent  -->
<g id="edge8" class="edge">
<title>AppModule&#45;&gt;AppComponent </title>
<path fill="none" stroke="black" stroke-dasharray="1,5" d="M725,-149.91C725,-149.91 725,-168.79 725,-168.79"/>
<polygon fill="black" stroke="black" points="721.5,-168.79 725,-178.79 728.5,-168.79 721.5,-168.79"/>
</g>
<!-- AngularMaterialModule -->
<g id="node7" class="node">
<title>AngularMaterialModule</title>
<polygon fill="#8dd3c7" stroke="black" points="647.34,-84.8 644.34,-88.8 623.34,-88.8 620.34,-84.8 494.66,-84.8 494.66,-48.8 647.34,-48.8 647.34,-84.8"/>
<text text-anchor="middle" x="571" y="-62.6" font-family="Times,serif" font-size="14.00">AngularMaterialModule</text>
</g>
<!-- AngularMaterialModule&#45;&gt;AppModule -->
<g id="edge6" class="edge">
<title>AngularMaterialModule&#45;&gt;AppModule</title>
<path fill="none" stroke="black" d="M571,-84.81C571,-100.85 571,-121.8 571,-121.8 571,-121.8 673.33,-121.8 673.33,-121.8"/>
<polygon fill="black" stroke="black" points="673.33,-125.3 683.33,-121.8 673.33,-118.3 673.33,-125.3"/>
</g>
<!-- AppRoutingModule -->
<g id="node8" class="node">
<title>AppRoutingModule</title>
<polygon fill="#8dd3c7" stroke="black" points="476.27,-84.8 473.27,-88.8 452.27,-88.8 449.27,-84.8 347.73,-84.8 347.73,-48.8 476.27,-48.8 476.27,-84.8"/>
<text text-anchor="middle" x="412" y="-62.6" font-family="Times,serif" font-size="14.00">AppRoutingModule</text>
</g>
<!-- AppRoutingModule&#45;&gt;AppModule -->
<g id="edge7" class="edge">
<title>AppRoutingModule&#45;&gt;AppModule</title>
<path fill="none" stroke="black" d="M412,-85.07C412,-103.36 412,-128.8 412,-128.8 412,-128.8 673.11,-128.8 673.11,-128.8"/>
<polygon fill="black" stroke="black" points="673.11,-132.3 683.11,-128.8 673.11,-125.3 673.11,-132.3"/>
</g>
<!-- ErrorInterceptor -->
<g id="node10" class="node">
<title>ErrorInterceptor</title>
<ellipse fill="#fdb462" stroke="black" cx="250" cy="-66.8" rx="73.53" ry="18"/>
<text text-anchor="middle" x="250" y="-62.6" font-family="Times,serif" font-size="14.00">ErrorInterceptor</text>
</g>
<!-- ErrorInterceptor&#45;&gt;AppModule -->
<g id="edge9" class="edge">
<title>ErrorInterceptor&#45;&gt;AppModule</title>
<path fill="none" stroke="black" d="M250,-84.93C250,-105.37 250,-135.8 250,-135.8 250,-135.8 673.26,-135.8 673.26,-135.8"/>
<polygon fill="black" stroke="black" points="673.26,-139.3 683.26,-135.8 673.26,-132.3 673.26,-139.3"/>
</g>
<!-- JwtInterceptor -->
<g id="node11" class="node">
<title>JwtInterceptor</title>
<ellipse fill="#fdb462" stroke="black" cx="91" cy="-66.8" rx="66.61" ry="18"/>
<text text-anchor="middle" x="91" y="-62.6" font-family="Times,serif" font-size="14.00">JwtInterceptor</text>
</g>
<!-- JwtInterceptor&#45;&gt;AppModule -->
<g id="edge10" class="edge">
<title>JwtInterceptor&#45;&gt;AppModule</title>
<path fill="none" stroke="black" d="M91,-84.81C91,-107.29 91,-142.8 91,-142.8 91,-142.8 672.91,-142.8 672.91,-142.8"/>
<polygon fill="black" stroke="black" points="672.91,-146.3 682.91,-142.8 672.91,-139.3 672.91,-146.3"/>
</g>
</g>
</svg>
